# xmcd CD database file
#
# Track frame offsets:
#	150
#	18342
#	37145
#	55257
#
# Disc length: 986 seconds
#
# Revision: 0
# Processed by: cddbd v1.5.1PL0 Copyright (c) Steve Scherf et al.
# Submitted via: CDex 1.51
#
DISCID=2e03d804
DTITLE=Lindberg - さよならBeautiful Days
DYEAR=1992
DGENRE=J-POP
TTITLE0=さよならBeautiful Days
TTITLE1=千年たっても
TTITLE2=さよならBeautiful Days (karaoke)
TTITLE3=千年たっても (karaoke)
EXTD=YEAR: 1992
EXTT0=
EXTT1=
EXTT2=
EXTT3=
PLAYORDER=
